# xmcd CD database file
#
# Track frame offsets:
#	150
#	18628
#	39234
#	55027
#	70954
#	92198
#	106932
#	128985
#	152844
#	170140
#	189528
#	208621
#
# Disc length: 3076 seconds
#
# Revision: 0
# Processed by: cddbd v1.5PL3 Copyright (c) Steve Scherf et al.
# Submitted via: CDex 1.50beta8
#
DISCID=a60c020c
DTITLE=２丁拳銃 - LOVEROCK
DYEAR=2001
DGENRE=JPop
TTITLE0=青色(VETSU VERSION)
TTITLE1=ラブソング
TTITLE2=見せてごらん
TTITLE3=骨太ロック
TTITLE4=僕のうた
TTITLE5=みんな元気かな
TTITLE6=空を見上げて
TTITLE7=いつだって･･･
TTITLE8=好きなことやろう
TTITLE9=わがままなうた
TTITLE10=逢いたくて
TTITLE11=評判が悪くなる
EXTD=YEAR: 2001
EXTT0=
EXTT1=
EXTT2=
EXTT3=
EXTT4=
EXTT5=
EXTT6=
EXTT7=
EXTT8=
EXTT9=
EXTT10=
EXTT11=
PLAYORDER=
